<?xml version="1.0"?>
<svg xmlns="http://www.w3.org/2000/svg" xmlns:xlink="http://www.w3.org/1999/xlink" xmlns:svgjs="http://svgjs.com/svgjs" version="1.1" width="512" height="512" x="0" y="0" viewBox="0 0 511.903 511.903" style="enable-background:new 0 0 512 512" xml:space="preserve" class=""><g><g xmlns="http://www.w3.org/2000/svg"><path d="m121.21 246.06c8.149-10.517 12.571-23.444 12.571-36.749 0-112.403 94.579-160.163 142.229-171.402-.283-6.255-2.043-11.722-1.906-17.96-112.902 1.412-197.77 69.231-197.77 189.362-19.187 24.763-35.839 48.702-46.54 69.18-11.5 22.006 4.617 48.348 29.425 48.413 8.258.021 15.166 6.259 15.869 14.487l4.319 50.528c2.513 29.401 27.111 51.986 56.618 51.986h31.817c-.602-5.935-1.198-11.87-1.808-17.801-16.446-5.043-28.54-20.13-29.023-38.199l-4.693-51.627c0-34.373-30.968-48.297-31.539-48.791-4.86-4.204-11.306-4.582-2.117-16.582 5.309-6.936 16.318-16.805 22.548-24.845z" fill="#f16e23b7" data-original="#cee1f2" style="" class=""/><path d="m193.01 511.903c-11.046 0-20-8.954-20-20v-8c0-11.028-8.972-20-20-20h-16.985c-38.868.694-73.927-31.498-76.546-70.282l-4.005-46.852c-17.255-1.213-32.659-10.573-41.734-25.558-9.694-16.004-10.318-35.438-1.671-51.984 9.747-18.651 24.282-40.56 44.354-66.835 1.888-121.764 93.558-200.741 214.099-202.392 26.532.397 27.481 38.283.977 39.988-108.046 2.64-175.165 67.521-175.165 169.322 0 4.435-1.474 8.744-4.19 12.25-20.45 26.395-35.463 48.666-44.623 66.194-3.044 5.824-.712 10.847.433 12.735 1.168 1.929 4.613 6.414 11.357 6.414 18.758 0 34.107 14.094 35.705 32.784l4.319 50.527c1.641 19.205 17.415 33.688 36.69 33.688h16.985c33.084 0 60 26.916 60 60v8c0 11.047-8.954 20.001-20 20.001zm249-20v-124c-.354-48.327 31.151-72.333 45.002-114.755 3.445-10.494-2.269-21.795-12.763-25.241-10.494-3.445-21.795 2.268-25.241 12.763-16.74 44.323-47.135 68.243-46.998 127.233v124c0 11.046 8.954 20 20 20s20-8.954 20-20z" fill="#ffffff" data-original="#0023c4" style="" class=""/><path d="m486.01 108.909h-16.734c-7.94-35.957-36.309-64.326-72.266-72.266v-16.734c-1.056-26.536-38.953-26.516-40 0v16.516c-36.43 7.63-65.252 36.194-73.266 72.484h-16.734c-26.536 1.056-26.516 38.953 0 40h16.516c7.701 36.765 36.719 65.783 73.484 73.484v16.516c1.056 26.536 38.953 26.516 40 0v-16.734c36.29-8.014 64.854-36.835 72.484-73.266h16.516c26.536-1.056 26.516-38.953 0-40zm-109.5 75.5c-30.327 0-55-24.673-55-55 3.021-72.965 106.99-72.944 110 0 0 30.327-24.673 55-55 55z" fill="#e7671db7" data-original="#ff5cf3" style="" class=""/></g></g></svg>
