<?xml version="1.0"?>
<svg xmlns="http://www.w3.org/2000/svg" xmlns:xlink="http://www.w3.org/1999/xlink" xmlns:svgjs="http://svgjs.com/svgjs" version="1.1" width="512" height="512" x="0" y="0" viewBox="0 0 24 24" style="enable-background:new 0 0 512 512" xml:space="preserve" class=""><g><path xmlns="http://www.w3.org/2000/svg" d="m17.5 24h-9c-.276 0-.5-.224-.5-.5v-3.325l-2.415.734c-.162.058-.366.091-.585.091-1.103 0-2-.897-2-2v-3h-2c-.551 0-1-.449-1-1 0-.19.053-.371.157-.536l2.34-3.71c.329-.521.503-1.127.503-1.754 0-2.404.937-4.664 2.637-6.363.902-.903 1.998-1.61 3.169-2.045.261-.096.547.036.643.294.096.259-.036.547-.294.643-1.038.385-2.009 1.013-2.811 1.815-1.511 1.511-2.344 3.519-2.344 5.656 0 .817-.228 1.608-.658 2.288l-2.339 3.709 2.497.003c.276 0 .5.224.5.5v3.5c0 .551.449 1 1 1 .104 0 .196-.014.272-.041l3.082-.938c.151-.044.315-.018.443.077.128.094.203.244.203.402v3.5h8v-4.53c0-1.744.533-3.43 1.54-4.876.372-.517.671-1.07.893-1.652.099-.258.388-.388.645-.29.258.098.388.387.29.645-.252.664-.593 1.294-1.012 1.875-.886 1.271-1.356 2.76-1.356 4.298v5.03c0 .276-.224.5-.5.5z" fill="#ffffff" data-original="#000000" style="" class=""/><path xmlns="http://www.w3.org/2000/svg" d="m17.5 10c-.143 0-.279-.061-.374-.168-2.85-3.206-2.85-6.458 0-9.664.189-.214.558-.214.747 0 2.85 3.206 2.85 6.458 0 9.664-.094.107-.23.168-.373.168zm0-8.725c-1.995 2.502-1.995 4.947 0 7.449 1.995-2.501 1.995-4.947 0-7.449z" fill="#ffffff" data-original="#000000" style="" class=""/><path xmlns="http://www.w3.org/2000/svg" d="m17.471 10c-.015 0-.03 0-.045-.002-4.017-.364-6.178-2.648-6.424-6.788-.009-.143.044-.282.146-.383s.247-.148.383-.146c1.778.106 3.225.57 4.301 1.379.221.166.265.479.099.7s-.479.265-.7.099c-.801-.603-1.869-.982-3.18-1.13.368 3.247 2.161 4.974 5.466 5.273.275.025.478.268.453.543-.025.26-.243.455-.499.455z" fill="#ffffff" data-original="#000000" style="" class=""/><path xmlns="http://www.w3.org/2000/svg" d="m17.529 10c-.256 0-.474-.195-.498-.455-.025-.275.178-.518.453-.543 3.305-.299 5.099-2.026 5.466-5.273-1.312.148-2.379.528-3.18 1.13-.221.167-.534.122-.7-.099s-.122-.534.099-.7c1.076-.81 2.522-1.273 4.301-1.379.137-.008.282.044.383.146.101.101.154.241.146.383-.246 4.14-2.407 6.424-6.424 6.788-.015.002-.031.002-.046.002z" fill="#ffffff" data-original="#000000" style="" class=""/></g></svg>
