<?xml version="1.0"?>
<svg xmlns="http://www.w3.org/2000/svg" xmlns:xlink="http://www.w3.org/1999/xlink" xmlns:svgjs="http://svgjs.com/svgjs" version="1.1" width="512" height="512" x="0" y="0" viewBox="0 0 513.797 513.797" style="enable-background:new 0 0 512 512" xml:space="preserve" class=""><g><g xmlns="http://www.w3.org/2000/svg"><path d="m324.575 16.794c-6.555-10.673-17.338-16.794-29.583-16.794-11.273 0-21.1 4.493-27.502 11.887-6.403-7.394-16.23-11.887-27.502-11.887-12.244 0-23.028 6.122-29.583 16.795-7.347 11.962-8.107 27.553-1.938 39.721 3.548 6.999 14.882 22.625 50.92 48.654 2.424 1.75 5.263 2.625 8.102 2.625 2.84 0 5.68-.875 8.103-2.625 36.038-26.028 47.372-41.656 50.921-48.654 6.169-12.168 5.409-27.76-1.938-39.722zm-11.441 32.938c-5.722 11.284-27.195 29.398-45.645 42.785-18.447-13.387-39.922-31.501-45.644-42.785-3.805-7.504-3.266-17.585 1.341-25.087 2.212-3.602 7.337-9.645 16.801-9.645 10.638 0 18.71 6.159 20.086 15.324.552 3.671 3.705 6.386 7.417 6.386 3.713 0 6.866-2.716 7.417-6.387 1.375-9.165 9.448-15.323 20.085-15.323 9.464 0 14.589 6.042 16.801 9.645 4.607 7.501 5.147 17.583 1.341 25.087z" fill="#ffffff" data-original="#000000" style="" class=""/><g><g><path d="m413.776 301.752v-5.465c37.491-11.048 64.937-45.774 64.937-86.796v-64.749c8.429-6.04 27.126-23.255 27.34-57.266.035-5.669-2.142-11-6.13-15.014-3.968-3.992-9.252-6.191-14.877-6.19l-67.903.003c-4.143 0-7.5 3.358-7.5 7.5s3.358 7.5 7.5 7.5l67.903-.003c1.602 0 3.106.626 4.237 1.764 1.151 1.159 1.78 2.702 1.77 4.346-.184 29.178-16.878 42.437-21.928 45.782h-114.802c-3.351 0-6.295 2.223-7.213 5.446-.456 1.601-1.571 4.593-4.295 9.757-4.095 7.764-10.024 14.044-17.149 18.164-3.329 1.925-7.021 3.488-12.895 4.565v-15.773c0-16.549 6.056-32.841 17.053-45.875 10.978-13.012 26.494-22.441 43.692-26.552 3.047-.729 6.18-1.218 9.313-1.454 4.131-.312 7.227-3.912 6.915-8.042s-3.901-7.222-8.042-6.916c-3.926.296-7.854.909-11.673 1.823-20.291 4.849-38.641 16.025-51.67 31.468-13.276 15.736-20.588 35.464-20.588 55.548v17.208h-3.063c-12.954 0-23.492 10.539-23.492 23.493v.235c0 12.954 10.538 23.493 23.492 23.493h3.648c4.135 36.464 30.034 66.418 64.351 76.533v5.445c-43.728 11.101-76.174 50.794-76.174 97.926v106.643c0 4.142 3.357 7.5 7.5 7.5h188.417c4.143 0 7.5-3.358 7.5-7.5v-106.645c0-47.129-32.45-86.799-76.174-97.902zm-116.005-97.001h-3.063c-4.683 0-8.492-3.81-8.492-8.493v-.235c0-4.683 3.81-8.493 8.492-8.493h3.063zm15.001 4.779v-23.234c8.194-1.221 14.408-3.313 20.402-6.779 9.574-5.536 17.496-13.887 22.909-24.152 1.401-2.657 2.555-5.046 3.476-7.201h104.154v61.327c0 41.615-33.856 75.471-75.472 75.471-41.601 0-75.448-33.835-75.469-75.432zm86.004 89.815v15.149c0 5.809-4.726 10.534-10.535 10.534s-10.534-4.726-10.534-10.534v-15.167c3.459.403 6.969.635 10.534.635 3.564 0 7.078-.214 10.535-.617zm76.174 199.452h-26.747v-104c0-4.142-3.357-7.5-7.5-7.5s-7.5 3.358-7.5 7.5v104h-89.924v-104c0-4.142-3.357-7.5-7.5-7.5s-7.5 3.358-7.5 7.5v104h-26.746v-99.143c0-38.851 25.892-71.761 61.325-82.399 1.381 12.786 12.235 22.774 25.383 22.774 13.142 0 23.994-9.981 25.382-22.759 35.431 10.639 61.327 43.535 61.327 82.385z" fill="#ffffff" data-original="#000000" style="" class=""/><path d="m373.803 191.395c-1.209 1.294-2.85 2.006-4.619 2.006-1.831 0-3.571-.794-4.775-2.18-2.716-3.126-7.453-3.459-10.58-.742s-3.459 7.454-.742 10.581c4.054 4.665 9.921 7.341 16.098 7.341 5.881 0 11.559-2.464 15.576-6.761 2.829-3.026 2.669-7.772-.356-10.601-3.027-2.828-7.773-2.669-10.602.356z" fill="#ffffff" data-original="#000000" style="" class=""/><path d="m424.73 208.401c5.882 0 11.56-2.465 15.576-6.763 2.828-3.026 2.668-7.772-.358-10.601-3.028-2.83-7.774-2.667-10.601.358-1.208 1.293-2.848 2.005-4.617 2.005-1.831 0-3.571-.794-4.775-2.18-2.716-3.126-7.453-3.459-10.58-.742s-3.459 7.454-.742 10.581c4.054 4.666 9.921 7.342 16.097 7.342z" fill="#ffffff" data-original="#000000" style="" class=""/></g><g><path d="m202.987 192.116h-3.063v-17.207c0-19.717-7.061-39.081-19.881-54.673 2.837-3.984 4.921-8.227 6.345-11.684 1.914-4.644 1.181-9.801-1.524-13.703 3.866-5.457 6.549-11.741 7.578-18.424 2.439-15.85-5.667-31.002-20.654-38.604-14.966-7.59-31.967-5.174-43.314 6.158-4.784 4.777-8.265 10.654-10.384 16.997-4.748.12-9.344 2.576-11.962 6.865-2.843 4.659-6.219 11.435-7.297 18.662-2.557.336-5.094.792-7.592 1.389-20.291 4.849-38.641 16.025-51.669 31.468-14.217 16.852-20.584 43.173-20.588 61.784v.01 47.923c0 41.021 27.446 75.748 64.937 86.796v5.451c-43.727 11.101-76.175 50.785-76.175 97.916v87.056c0 4.142 3.358 7.5 7.5 7.5h188.417c4.142 0 7.5-3.358 7.5-7.5v-31.799c0-4.142-3.358-7.5-7.5-7.5s-7.5 3.358-7.5 7.5v24.299h-26.746v-84.412c0-4.142-3.358-7.5-7.5-7.5s-7.5 3.358-7.5 7.5v84.412h-89.925v-84.412c0-4.142-3.358-7.5-7.5-7.5s-7.5 3.358-7.5 7.5v84.412h-26.746v-79.556c0-38.849 25.897-71.74 61.328-82.379 1.39 12.776 12.24 22.754 25.38 22.754 13.146 0 24-9.986 25.382-22.77 35.432 10.639 61.326 43.545 61.326 82.396v21.696c0 4.142 3.358 7.5 7.5 7.5s7.5-3.358 7.5-7.5v-21.697c0-47.131-32.447-86.815-76.174-97.917v-5.454c34.318-10.115 60.216-40.069 64.351-76.533h3.649c12.954 0 23.493-10.539 23.493-23.493v-.234c.001-12.954-10.538-23.493-23.492-23.493zm-63.915-137.523c8.101-8.09 18.706-7.059 25.929-3.395 7.24 3.672 14.355 11.628 12.614 22.944-.69 4.481-2.577 8.732-5.282 12.425l-40.165-20.373c1.381-4.364 3.697-8.397 6.904-11.601zm-20.438 21.555 53.662 27.219c-2.32 5.472-5.212 9.825-8.203 12.349l-50.578-25.655c.271-3.902 2.075-8.807 5.119-13.913zm1.353 257.932c0 5.809-4.726 10.535-10.535 10.535s-10.534-4.726-10.534-10.535v-15.149c3.457.403 6.971.617 10.534.617 3.565 0 7.076-.231 10.535-.635zm-10.535-29.532c-41.615 0-75.471-33.856-75.471-75.471v-40.757c4.067.033 9.47.158 14.262.321 24.558.837 47.579-4.775 66.586-16.227 1.937-1.167 10.381-6.806 18.041-11.95 3.918 6.903 8.444 14.844 10.579 18.468 10.264 17.426 20.577 29.691 33.889 43.832 1.088 1.156 5.036 5.266 7.545 7.876-.837 40.893-34.34 73.908-75.431 73.908zm75.471-95.643c-11.016-11.928-19.856-22.826-28.55-37.586-2.5-4.244-8.604-14.988-12.021-21.014-1.65-2.911-4.463-5.021-7.718-5.789-.909-.214-1.834-.32-2.756-.32-2.382 0-4.742.704-6.747 2.052-11.112 7.472-18.604 12.451-20.042 13.317-16.516 9.95-36.693 14.815-58.335 14.083-.056-.002-5.639-.191-11.171-.284-1.14-.02-2.201-.033-3.181-.042 1.526-14.926 7.175-33.082 16.632-44.291 10.978-13.012 26.495-22.441 43.691-26.552 2.793-.667 5.648-1.116 8.53-1.371.923.833 1.956 1.559 3.095 2.137l51.338 26.041c2.04 1.034 4.256 1.542 6.466 1.542 1.547 0 3.088-.255 4.564-.746 10.451 12.856 16.206 28.715 16.206 44.826v33.997zm26.557 6.938c0 4.683-3.81 8.493-8.493 8.493h-3.063v-17.221h3.063c4.683 0 8.493 3.81 8.493 8.493z" fill="#ffffff" data-original="#000000" style="" class=""/><path d="m77.922 208.601c-1.209 1.293-2.849 2.005-4.618 2.005-1.831 0-3.571-.794-4.775-2.18-2.717-3.125-7.454-3.459-10.581-.742-3.126 2.717-3.459 7.454-.742 10.581 4.054 4.666 9.921 7.341 16.098 7.341 5.881 0 11.559-2.465 15.576-6.762 2.829-3.026 2.668-7.771-.357-10.601-3.025-2.826-7.771-2.668-10.601.358z" fill="#ffffff" data-original="#000000" style="" class=""/><path d="m133.469 208.601c-1.209 1.293-2.849 2.005-4.618 2.005-1.831 0-3.571-.794-4.775-2.18-2.716-3.125-7.453-3.459-10.581-.742-3.126 2.717-3.459 7.454-.742 10.581 4.054 4.666 9.922 7.341 16.098 7.341 5.881 0 11.559-2.465 15.576-6.762 2.829-3.026 2.668-7.771-.357-10.601-3.025-2.826-7.771-2.668-10.601.358z" fill="#ffffff" data-original="#000000" style="" class=""/></g></g></g></g></svg>
